<svg width="37" height="34" viewBox="0 0 37 34" fill="none" xmlns="http://www.w3.org/2000/svg">
<path d="M31.9048 2.46149C29.5648 2.46149 27.6448 4.38149 27.6448 6.72149C27.6448 7.08149 27.7048 7.38149 27.7648 7.68149L23.7447 10.3215C22.4847 8.88149 20.6848 7.92149 18.5848 7.92149C17.0248 7.92149 15.5848 8.46149 14.4448 9.36149L7.84475 4.80149C8.26475 3.06149 7.36475 1.14149 5.68475 0.361488C3.70475 -0.538512 1.36475 0.301488 0.46475 2.22149C-0.43525 4.14149 0.40475 6.54149 2.32475 7.44149C3.34475 7.92149 4.48475 7.92149 5.50475 7.50149L12.2848 12.2415C11.9848 12.9615 11.8048 13.8015 11.8048 14.6415C11.8048 15.1215 11.8647 15.5415 11.9247 16.0215L7.78475 17.5215C7.24475 16.9215 6.52475 16.4415 5.62475 16.2015C3.28475 15.5415 0.82475 16.9215 0.16475 19.3215C-0.49525 21.6615 0.88475 24.1215 3.28475 24.7815C5.62475 25.4415 8.08475 24.0615 8.74475 21.6615C8.80475 21.4215 8.86475 21.1815 8.86475 20.9415L13.6048 19.2615C14.8648 20.5815 16.6048 21.4215 18.5248 21.4215C18.7048 21.4215 18.8848 21.4215 19.0648 21.4215L19.7247 24.7815C18.4647 25.8015 17.7448 27.4215 17.9248 29.1015C18.1648 31.8615 20.6248 33.8415 23.3848 33.6015C26.1448 33.3615 28.1247 30.9015 27.8847 28.1415C27.6447 25.6815 25.6648 23.8215 23.2648 23.6415L22.5447 20.1015C24.2247 18.9015 25.3648 16.8615 25.3648 14.6415C25.3648 14.2815 25.3048 13.9215 25.3048 13.6215L30.0448 10.5015C30.6448 10.8015 31.3048 10.9815 31.9648 10.9815C34.3048 10.9815 36.2247 9.06149 36.2247 6.72149C36.1647 4.38149 34.2448 2.46149 31.9048 2.46149ZM18.5848 19.0215C16.1848 19.0215 14.2648 17.1015 14.2648 14.7015C14.2648 12.3015 16.1848 10.3815 18.5848 10.3815C20.9848 10.3815 22.9048 12.3015 22.9048 14.7015C22.9048 17.0415 20.9848 19.0215 18.5848 19.0215Z" fill="white"/>
<path d="M18.6449 16.6215C19.7052 16.6215 20.5649 15.7619 20.5649 14.7015C20.5649 13.6411 19.7052 12.7815 18.6449 12.7815C17.5845 12.7815 16.7249 13.6411 16.7249 14.7015C16.7249 15.7619 17.5845 16.6215 18.6449 16.6215Z" fill="white"/>
</svg>
