<svg width="18" height="25" viewBox="0 0 18 25" fill="none" xmlns="http://www.w3.org/2000/svg">
<path d="M8.38385 5.21972C7.38399 4.01567 6.69962 1.91309 6.35999 0C6.01983 1.91348 5.33619 4.0165 4.33596 5.22055C3.3361 6.42378 1.58891 7.2476 0 7.65727C1.58956 8.06611 3.33642 8.88945 4.33629 10.0936C5.33615 11.2972 6.02052 13.4002 6.36068 15.3133C6.70031 13.3998 7.38447 11.2968 8.38418 10.0927C9.38404 8.88911 11.1312 8.06567 12.7201 7.656C11.1309 7.24717 9.38408 6.42339 8.38385 5.21972Z" fill="url(#paint0_linear_232_18)"/>
<path d="M14.8786 14.8603C14.2818 14.1415 13.8723 12.8847 13.6694 11.7419C13.4661 12.8847 13.058 14.1415 12.4605 14.8607C11.863 15.5791 10.8192 16.0717 9.87 16.3164C10.8195 16.561 11.863 17.0527 12.4605 17.772C13.058 18.4908 13.4668 19.7476 13.67 20.8903C13.8729 19.7471 14.2818 18.4908 14.8789 17.7716C15.476 17.0527 16.52 16.5605 17.469 16.3155C16.5201 16.0713 15.4761 15.5791 14.8786 14.8603Z" fill="url(#paint1_linear_232_18)"/>
<path d="M4.28692 17.3195C4.11627 18.2788 3.7736 19.3343 3.27209 19.9379C2.77065 20.5411 1.89426 20.9545 1.09741 21.1599C1.89426 21.3658 2.77065 21.7779 3.27209 22.382C3.7736 22.9856 4.11696 24.0402 4.28761 25C4.45809 24.0402 4.80093 22.9856 5.3026 22.3816C5.80371 21.778 6.68026 21.365 7.47695 21.1592C6.6803 20.9541 5.80371 20.5412 5.30228 19.9375C4.80093 19.3343 4.4574 18.2789 4.28692 17.3195Z" fill="url(#paint2_linear_232_18)"/>
<defs>
<linearGradient id="paint0_linear_232_18" x1="4" y1="3.5" x2="13.5918" y2="14.7102" gradientUnits="userSpaceOnUse">
<stop offset="0.43" stop-color="#4E3262"/>
<stop offset="1" stop-color="#875C3B"/>
</linearGradient>
<linearGradient id="paint1_linear_232_18" x1="9.87" y1="11.7419" x2="18.8631" y2="19.212" gradientUnits="userSpaceOnUse">
<stop stop-color="#4E3262"/>
<stop offset="1" stop-color="#875C3B"/>
</linearGradient>
<linearGradient id="paint2_linear_232_18" x1="1.09741" y1="17.3195" x2="8.64756" y2="23.5907" gradientUnits="userSpaceOnUse">
<stop stop-color="#4E3262"/>
<stop offset="1" stop-color="#875C3B"/>
</linearGradient>
</defs>
</svg>
