<svg width="828" height="151" viewBox="0 0 828 151" fill="none" xmlns="http://www.w3.org/2000/svg">
<g filter="url(#filter0_b_22_463)">
<path d="M327.892 15C327.892 6.71569 334.608 -3.05176e-05 342.892 -3.05176e-05H483.826C492.11 -3.05176e-05 498.826 6.7157 498.826 15V44.0882C498.826 52.3725 492.11 59.0882 483.826 59.0882H342.892C334.608 59.0882 327.892 52.3724 327.892 44.0882V15Z" fill="url(#paint0_radial_22_463)"/>
<path d="M328.392 15C328.392 6.99183 334.884 0.499969 342.892 0.499969H483.826C491.834 0.499969 498.326 6.99184 498.326 15V44.0882C498.326 52.0963 491.834 58.5882 483.826 58.5882H342.892C334.884 58.5882 328.392 52.0963 328.392 44.0882V15Z" stroke="url(#paint1_linear_22_463)"/>
<path d="M367.46 36V22H376.1V23.96H369.62V28H375.58V29.96H369.62V36H367.46ZM382.042 36.18C381.296 36.18 380.629 36.0133 380.042 35.68C379.456 35.3467 378.996 34.8733 378.662 34.26C378.329 33.6467 378.162 32.9133 378.162 32.06V26.14H380.222V31.92C380.222 32.7733 380.436 33.4067 380.862 33.82C381.289 34.22 381.882 34.42 382.642 34.42C383.482 34.42 384.156 34.14 384.662 33.58C385.182 33.0067 385.442 32.1867 385.442 31.12V26.14H387.502V36H385.482V34.52H385.162C384.976 34.92 384.642 35.3 384.162 35.66C383.682 36.0067 382.976 36.18 382.042 36.18ZM395.067 36.28C394.067 36.28 393.194 36.0733 392.447 35.66C391.701 35.2333 391.114 34.64 390.687 33.88C390.274 33.1067 390.067 32.2133 390.067 31.2V30.96C390.067 29.9333 390.274 29.04 390.687 28.28C391.101 27.5067 391.674 26.9133 392.407 26.5C393.154 26.0733 394.014 25.86 394.987 25.86C395.934 25.86 396.761 26.0733 397.467 26.5C398.187 26.9133 398.747 27.4933 399.147 28.24C399.547 28.9867 399.747 29.86 399.747 30.86V31.64H392.167C392.194 32.5067 392.481 33.2 393.027 33.72C393.587 34.2267 394.281 34.48 395.107 34.48C395.881 34.48 396.461 34.3067 396.847 33.96C397.247 33.6133 397.554 33.2133 397.767 32.76L399.467 33.64C399.281 34.0133 399.007 34.4067 398.647 34.82C398.301 35.2333 397.841 35.58 397.267 35.86C396.694 36.14 395.961 36.28 395.067 36.28ZM392.187 30.06H397.647C397.594 29.3133 397.327 28.7333 396.847 28.32C396.367 27.8933 395.741 27.68 394.967 27.68C394.194 27.68 393.561 27.8933 393.067 28.32C392.587 28.7333 392.294 29.3133 392.187 30.06ZM402.227 36V22H404.287V36H402.227ZM411.864 36.28C410.864 36.28 409.991 36.0733 409.244 35.66C408.498 35.2333 407.911 34.64 407.484 33.88C407.071 33.1067 406.864 32.2133 406.864 31.2V30.96C406.864 29.9333 407.071 29.04 407.484 28.28C407.898 27.5067 408.471 26.9133 409.204 26.5C409.951 26.0733 410.811 25.86 411.784 25.86C412.731 25.86 413.558 26.0733 414.264 26.5C414.984 26.9133 415.544 27.4933 415.944 28.24C416.344 28.9867 416.544 29.86 416.544 30.86V31.64H408.964C408.991 32.5067 409.278 33.2 409.824 33.72C410.384 34.2267 411.078 34.48 411.904 34.48C412.678 34.48 413.258 34.3067 413.644 33.96C414.044 33.6133 414.351 33.2133 414.564 32.76L416.264 33.64C416.078 34.0133 415.804 34.4067 415.444 34.82C415.098 35.2333 414.638 35.58 414.064 35.86C413.491 36.14 412.758 36.28 411.864 36.28ZM408.984 30.06H414.444C414.391 29.3133 414.124 28.7333 413.644 28.32C413.164 27.8933 412.538 27.68 411.764 27.68C410.991 27.68 410.358 27.8933 409.864 28.32C409.384 28.7333 409.091 29.3133 408.984 30.06ZM423.104 36.28C422.291 36.28 421.537 36.08 420.844 35.68C420.151 35.28 419.591 34.7067 419.164 33.96C418.751 33.2 418.544 32.2867 418.544 31.22V30.92C418.544 29.8667 418.751 28.96 419.164 28.2C419.577 27.44 420.131 26.86 420.824 26.46C421.517 26.06 422.277 25.86 423.104 25.86C423.744 25.86 424.277 25.94 424.704 26.1C425.144 26.26 425.504 26.4667 425.784 26.72C426.064 26.96 426.277 27.2133 426.424 27.48H426.744V22H428.804V36H426.784V34.6H426.464C426.211 35.0267 425.824 35.4133 425.304 35.76C424.797 36.1067 424.064 36.28 423.104 36.28ZM423.684 34.48C424.577 34.48 425.311 34.1933 425.884 33.62C426.471 33.0467 426.764 32.2267 426.764 31.16V30.98C426.764 29.9267 426.477 29.1133 425.904 28.54C425.331 27.9667 424.591 27.68 423.684 27.68C422.804 27.68 422.071 27.9667 421.484 28.54C420.911 29.1133 420.624 29.9267 420.624 30.98V31.16C420.624 32.2267 420.911 33.0467 421.484 33.62C422.071 34.1933 422.804 34.48 423.684 34.48ZM442.634 36.28C441.674 36.28 440.934 36.1067 440.414 35.76C439.907 35.4133 439.527 35.0267 439.274 34.6H438.954V36H436.934V22H438.994V27.48H439.314C439.474 27.2133 439.687 26.96 439.954 26.72C440.221 26.4667 440.574 26.26 441.014 26.1C441.454 25.94 441.994 25.86 442.634 25.86C443.461 25.86 444.221 26.06 444.914 26.46C445.607 26.86 446.161 27.44 446.574 28.2C446.987 28.96 447.194 29.8667 447.194 30.92V31.22C447.194 32.2867 446.981 33.2 446.554 33.96C446.141 34.7067 445.587 35.28 444.894 35.68C444.214 36.08 443.461 36.28 442.634 36.28ZM442.034 34.48C442.927 34.48 443.661 34.1933 444.234 33.62C444.821 33.0467 445.114 32.2267 445.114 31.16V30.98C445.114 29.9267 444.827 29.1133 444.254 28.54C443.681 27.9667 442.941 27.68 442.034 27.68C441.154 27.68 440.421 27.9667 439.834 28.54C439.261 29.1133 438.974 29.9267 438.974 30.98V31.16C438.974 32.2267 439.261 33.0467 439.834 33.62C440.421 34.1933 441.154 34.48 442.034 34.48ZM450.887 40V38.2H456.387C456.76 38.2 456.947 38 456.947 37.6V34.56H456.627C456.507 34.8267 456.32 35.0867 456.067 35.34C455.827 35.58 455.5 35.78 455.087 35.94C454.673 36.1 454.153 36.18 453.527 36.18C452.78 36.18 452.113 36.0133 451.527 35.68C450.94 35.3467 450.48 34.8733 450.147 34.26C449.813 33.6467 449.647 32.92 449.647 32.08V26.14H451.707V31.92C451.707 32.7733 451.92 33.4067 452.347 33.82C452.773 34.22 453.367 34.42 454.127 34.42C454.967 34.42 455.64 34.14 456.147 33.58C456.667 33.02 456.927 32.2067 456.927 31.14V26.14H458.987V38.02C458.987 38.62 458.807 39.1 458.447 39.46C458.1 39.82 457.62 40 457.007 40H450.887Z" fill="white"/>
</g>
<rect x="348.995" y="59.0882" width="6.33088" height="2.81372" fill="#6D6D6D"/>
<rect x="348.995" y="63.3088" width="6.33088" height="2.11029" fill="#6D6D6D"/>
<rect x="348.995" y="66.1225" width="6.33088" height="3.51716" fill="#6D6D6D"/>
<rect x="353.919" y="61.9019" width="4.22059" height="4.22059" transform="rotate(90 353.919 61.9019)" fill="#454545"/>
<rect x="373.615" y="59.0882" width="6.33088" height="2.81372" fill="#6D6D6D"/>
<rect x="373.615" y="63.3088" width="6.33088" height="2.11029" fill="#6D6D6D"/>
<rect x="373.615" y="66.1225" width="6.33088" height="3.51716" fill="#6D6D6D"/>
<rect x="378.539" y="61.9019" width="4.22059" height="4.22059" transform="rotate(90 378.539 61.9019)" fill="#454545"/>
<rect x="398.235" y="59.0882" width="6.33088" height="2.81372" fill="#6D6D6D"/>
<rect x="398.235" y="63.3088" width="6.33088" height="2.11029" fill="#6D6D6D"/>
<rect x="398.235" y="66.1225" width="6.33088" height="3.51716" fill="#6D6D6D"/>
<rect x="403.159" y="61.9019" width="4.22059" height="4.22059" transform="rotate(90 403.159 61.9019)" fill="#454545"/>
<rect x="422.855" y="59.0882" width="6.33088" height="2.81372" fill="#6D6D6D"/>
<rect x="422.855" y="63.3088" width="6.33088" height="2.11029" fill="#6D6D6D"/>
<rect x="422.855" y="66.1225" width="6.33088" height="3.51716" fill="#6D6D6D"/>
<rect x="427.779" y="61.9019" width="4.22059" height="4.22059" transform="rotate(90 427.779 61.9019)" fill="#454545"/>
<rect x="447.475" y="59.0882" width="6.33088" height="2.81372" fill="#6D6D6D"/>
<rect x="447.475" y="63.3088" width="6.33088" height="2.11029" fill="#6D6D6D"/>
<rect x="447.475" y="66.1225" width="6.33088" height="3.51716" fill="#6D6D6D"/>
<rect x="452.399" y="61.9019" width="4.22059" height="4.22059" transform="rotate(90 452.399 61.9019)" fill="#454545"/>
<rect x="472.095" y="59.0882" width="6.33088" height="2.81372" fill="#6D6D6D"/>
<rect x="472.095" y="63.3088" width="6.33088" height="2.11029" fill="#6D6D6D"/>
<rect x="472.095" y="66.1225" width="6.33088" height="3.51716" fill="#6D6D6D"/>
<rect x="477.019" y="61.9019" width="4.22059" height="4.22059" transform="rotate(90 477.019 61.9019)" fill="#454545"/>
<path d="M375.935 69.3412C375.935 69.3412 377.254 87.8344 368.019 102.629C358.52 117.847 351.396 116.684 325.009 117.423C298.623 118.163 293.346 118.903 287.805 129.259C282.302 139.543 282 150.341 282 150.341" stroke="url(#paint2_linear_22_463)" stroke-width="2.11029"/>
<path d="M401.049 69.6396V96.37" stroke="#191A19" stroke-width="2.11029"/>
<circle cx="401.049" cy="101.998" r="4.5723" stroke="#191A19" stroke-width="2.11029"/>
<circle cx="546.659" cy="118.88" r="4.5723" stroke="#191A19" stroke-width="2.11029"/>
<path d="M401.682 132.341C401.682 132.341 400.168 119.986 405.876 114.922C410.747 110.601 418.443 114.243 423.004 109.696C426.5 106.212 426.5 101.567 426.5 101.567V69.3412" stroke="#191A19" stroke-width="2.11029"/>
<path d="M450.338 69.6396C450.338 69.6396 448.931 91.446 461.241 104.811C473.551 118.176 489.026 118.176 489.026 118.176H541.08" stroke="#191A19" stroke-width="2.11029"/>
<path d="M352.16 69.6396C352.16 69.6396 350.936 84.3889 344.774 90.3909C339.929 95.1104 328.947 97.4252 328.947 97.4252H40.8921C40.8921 97.4252 24.7115 97.4252 12.0515 110.439C1.5 121.285 1.5 129.783 1.5 129.783V150.183" stroke="#191A19" stroke-width="2.11029"/>
<path d="M824.997 147.017C824.997 147.017 834.383 126.266 806.246 104.811C791.122 93.2794 731.682 98.4803 634.961 98.4803C538.239 98.4803 497.708 100.776 486.537 94.2598C473.875 86.8737 474.931 69.6397 474.931 69.6397" stroke="url(#paint3_linear_22_463)" stroke-width="2.11029"/>
<defs>
<filter id="filter0_b_22_463" x="317.892" y="-10" width="190.934" height="79.0882" filterUnits="userSpaceOnUse" color-interpolation-filters="sRGB">
<feFlood flood-opacity="0" result="BackgroundImageFix"/>
<feGaussianBlur in="BackgroundImageFix" stdDeviation="5"/>
<feComposite in2="SourceAlpha" operator="in" result="effect1_backgroundBlur_22_463"/>
<feBlend mode="normal" in="SourceGraphic" in2="effect1_backgroundBlur_22_463" result="shape"/>
</filter>
<radialGradient id="paint0_radial_22_463" cx="0" cy="0" r="1" gradientUnits="userSpaceOnUse" gradientTransform="translate(413.359 29.5441) rotate(-90) scale(29.5441 89.4854)">
<stop stop-color="#1A1A1A" stop-opacity="0.3"/>
<stop offset="0.705" stop-color="#1A1A1A" stop-opacity="0.519"/>
<stop offset="1" stop-color="#1D1D1D" stop-opacity="0.6"/>
</radialGradient>
<linearGradient id="paint1_linear_22_463" x1="327.892" y1="-3.05176e-05" x2="437.685" y2="116.64" gradientUnits="userSpaceOnUse">
<stop stop-color="#2A2A2A"/>
<stop offset="1" stop-color="#1A1A1A" stop-opacity="0.2"/>
</linearGradient>
<linearGradient id="paint2_linear_22_463" x1="282" y1="109.841" x2="375.935" y2="109.841" gradientUnits="userSpaceOnUse">
<stop stop-color="#D29B5B"/>
<stop offset="1" stop-color="#4E3262"/>
</linearGradient>
<linearGradient id="paint3_linear_22_463" x1="474.93" y1="108.328" x2="824.996" y2="108.328" gradientUnits="userSpaceOnUse">
<stop stop-color="#D29B5B"/>
<stop offset="1" stop-color="#4E3262" stop-opacity="0.4"/>
</linearGradient>
</defs>
</svg>
